<svg width="32" height="32" viewBox="0 0 32 32" fill="none" xmlns="http://www.w3.org/2000/svg">
<path d="M23.6684 2.48278C23.4119 1.2254 22.2979 0.275879 20.9655 0.275879C20.6604 0.275879 20.4138 0.5225 20.4138 0.827603C20.4138 1.13271 20.6604 1.37933 20.9655 1.37933C21.8781 1.37933 22.6207 2.12195 22.6207 3.0345C22.6207 3.94705 21.8781 4.68967 20.9655 4.68967C20.6604 4.68967 20.4138 4.93629 20.4138 5.2414C20.4138 5.5465 20.6604 5.79312 20.9655 5.79312C22.2974 5.79312 23.4119 4.8436 23.6684 3.58622H30.8966V8.55174H1.10345V3.58622H8.82759H10.4828C10.7879 3.58622 11.0345 3.3396 11.0345 3.0345C11.0345 2.7294 10.7879 2.48278 10.4828 2.48278H9.48083C9.70924 1.84167 10.3161 1.37933 11.0345 1.37933C11.947 1.37933 12.6897 2.12195 12.6897 3.0345C12.6897 3.94705 11.947 4.68967 11.0345 4.68967C10.7294 4.68967 10.4828 4.93629 10.4828 5.2414C10.4828 5.5465 10.7294 5.79312 11.0345 5.79312C12.5556 5.79312 13.7931 4.5556 13.7931 3.0345C13.7931 1.5134 12.5556 0.275879 11.0345 0.275879C9.70262 0.275879 8.58814 1.2254 8.33159 2.48278H0V9.65519V31.7242H32V9.65519V2.48278H23.6684ZM30.8966 30.6207H1.10345V9.65519H30.8966V30.6207Z" fill="black"/>
</svg>
